<svg width="400" height="400" viewBox="0 0 400 400" fill="none" xmlns="http://www.w3.org/2000/svg">
<path d="M307.784 260.513C298.126 270.381 282.503 267.2 274.901 255.674C260.302 233.543 235.469 195.896 207.169 152.994C178.644 109.751 153.201 71.1791 138.327 48.6309C130.725 37.1055 133.965 21.5053 146.865 16.5843C206.457 -6.14787 304.825 2.2903 344.485 62.4156C384.144 122.537 352.339 214.99 307.784 260.513Z" fill="url(#paint0_linear_236_44)"/>
<path d="M307.784 260.513C298.126 270.381 282.503 267.2 274.901 255.674C260.302 233.543 235.469 195.896 207.169 152.994C178.644 109.751 153.201 71.1791 138.327 48.6309C130.725 37.1055 133.965 21.5053 146.865 16.5843C206.457 -6.14787 304.825 2.2903 344.485 62.4156C384.144 122.537 352.339 214.99 307.784 260.513Z" fill="url(#paint1_linear_236_44)" fill-opacity="0.2"/>
<path d="M91.8019 139.219C101.464 129.356 117.085 132.544 124.683 144.072C139.272 166.21 164.089 203.868 192.37 246.782C220.876 290.038 246.303 328.62 261.167 351.175C268.764 362.704 265.518 378.302 252.615 383.218C193.013 405.924 94.6494 397.443 55.0145 337.301C15.3822 277.162 47.2265 184.724 91.8019 139.219Z" fill="url(#paint2_linear_236_44)"/>
<path d="M91.8019 139.219C101.464 129.356 117.085 132.544 124.683 144.072C139.272 166.21 164.089 203.868 192.37 246.782C220.876 290.038 246.303 328.62 261.167 351.175C268.764 362.704 265.518 378.302 252.615 383.218C193.013 405.924 94.6494 397.443 55.0145 337.301C15.3822 277.162 47.2265 184.724 91.8019 139.219Z" fill="url(#paint3_linear_236_44)" fill-opacity="0.2"/>
<defs>
<linearGradient id="paint0_linear_236_44" x1="135.575" y1="-163.797" x2="421.001" y2="130.779" gradientUnits="userSpaceOnUse">
<stop stop-color="#507287"/>
<stop offset="1" stop-color="#AAD2B5"/>
</linearGradient>
<linearGradient id="paint1_linear_236_44" x1="199.764" y1="5" x2="199.764" y2="394.773" gradientUnits="userSpaceOnUse">
<stop stop-color="#757FB6"/>
<stop offset="1" stop-color="#375568"/>
</linearGradient>
<linearGradient id="paint2_linear_236_44" x1="135.575" y1="-163.797" x2="421.001" y2="130.779" gradientUnits="userSpaceOnUse">
<stop stop-color="#507287"/>
<stop offset="1" stop-color="#AAD2B5"/>
</linearGradient>
<linearGradient id="paint3_linear_236_44" x1="199.764" y1="5" x2="199.764" y2="394.773" gradientUnits="userSpaceOnUse">
<stop stop-color="#757FB6"/>
<stop offset="1" stop-color="#375568"/>
</linearGradient>
</defs>
</svg>
